PathFileType	4	(X/Y/Z)	output.trc
DataRate	CameraRate	NumFrames	NumMarkers	Units	OrigDataRate	OrigDataStartFrame	OrigNumFrames
120	120	18	17	m	120	3918	4477
Frame#	Time	Elbow_Midpoint			GH			Wrist_Midpoint			US			RS			C7			EM			EL			T8			SC			AC			AI			TS			AA			IJx			PX00			PC
		X1	Y1	Z1	X2	Y2	Z2	X3	Y3	Z3	X4	Y4	Z4	X5	Y5	Z5	X6	Y6	Z6	X7	Y7	Z7	X8	Y8	Z8	X9	Y9	Z9	X10	Y10	Z10	X11	Y11	Z11	X12	Y12	Z12	X13	Y13	Z13	X14	Y14	Z14	X15	Y15	Z15	X16	Y16	Z16	X17	Y17	Z17
3917	32.641667	0.404904	0.939148	-0.487311	0.316474	1.186504	-0.550216	0.292785	0.795957	-0.627844	0.312934	0.786138	-0.631761	0.272636	0.805777	-0.623926	0.151140	1.301757	-0.554462	0.394775	0.943485	-0.467548	0.432222	0.932398	-0.513032	0.147369	1.104319	-0.417381	0.159626	1.191202	-0.588029	0.275958	1.227879	-0.565585	0.259497	1.116943	-0.416055	0.211742	1.253040	-0.486877	0.327514	1.222777	-0.564012	0.146346	1.192711	-0.591478	0.136233	0.999879	-0.581778	0.272216	1.186020	-0.573390
3918	32.650000	0.405160	0.939184	-0.488092	0.316646	1.186529	-0.550987	0.292872	0.795663	-0.628150	0.313013	0.785824	-0.632056	0.272730	0.805502	-0.624245	0.151281	1.301655	-0.555396	0.395116	0.943568	-0.468308	0.432376	0.932397	-0.513924	0.147237	1.104416	-0.418035	0.159750	1.191047	-0.588794	0.276049	1.227787	-0.566306	0.259861	1.117101	-0.416562	0.211845	1.252992	-0.487603	0.327614	1.222769	-0.564758	0.146476	1.192558	-0.592261	0.136249	0.999746	-0.582295	0.272368	1.185908	-0.574032
3919	32.658333	0.405369	0.939163	-0.488774	0.316844	1.186547	-0.551729	0.292965	0.795374	-0.628465	0.313101	0.785517	-0.632357	0.272829	0.805230	-0.624573	0.151461	1.301564	-0.556366	0.395427	0.943636	-0.469010	0.432498	0.932367	-0.514756	0.147141	1.104546	-0.418698	0.159902	1.190898	-0.589578	0.276164	1.227686	-0.567003	0.260189	1.117223	-0.417071	0.211943	1.252922	-0.488324	0.327737	1.222750	-0.565461	0.146632	1.192412	-0.593063	0.136278	0.999622	-0.582804	0.272546	1.185788	-0.574658
3920	32.666667	0.405543	0.939100	-0.489383	0.317065	1.186554	-0.552444	0.293067	0.795085	-0.628782	0.313199	0.785215	-0.632658	0.272935	0.804955	-0.624906	0.151678	1.301490	-0.557372	0.395704	0.943684	-0.469659	0.432591	0.932309	-0.515526	0.147084	1.104715	-0.419366	0.160079	1.190762	-0.590383	0.276308	1.227579	-0.567691	0.260478	1.117293	-0.417613	0.212039	1.252825	-0.489054	0.327888	1.222722	-0.566135	0.146814	1.192278	-0.593885	0.136322	0.999513	-0.583301	0.272754	1.185666	-0.575290
3921	32.675000	0.405702	0.939026	-0.489956	0.317310	1.186551	-0.553143	0.293178	0.794792	-0.629091	0.313307	0.784909	-0.632951	0.273049	0.804675	-0.625231	0.151918	1.301437	-0.558406	0.395940	0.943712	-0.470258	0.432660	0.932224	-0.516232	0.147065	1.104921	-0.420041	0.160279	1.190642	-0.591205	0.276484	1.227473	-0.568381	0.260717	1.117307	-0.418209	0.212135	1.252704	-0.489806	0.328070	1.222688	-0.566791	0.147018	1.192161	-0.594721	0.136390	0.999423	-0.583792	0.272992	1.185547	-0.575943
3922	32.683333	0.405863	0.938961	-0.490525	0.317578	1.186536	-0.553835	0.293296	0.794491	-0.629379	0.313422	0.784595	-0.633221	0.273170	0.804386	-0.625537	0.152168	1.301402	-0.559451	0.396130	0.943720	-0.470809	0.432706	0.932117	-0.516869	0.147063	1.105146	-0.420725	0.160496	1.190541	-0.592035	0.276690	1.227371	-0.569080	0.260893	1.117272	-0.418862	0.212231	1.252574	-0.490586	0.328280	1.222646	-0.567434	0.147239	1.192061	-0.595568	0.136487	0.999349	-0.584289	0.273253	1.185438	-0.576623
3923	32.691667	0.406033	0.938921	-0.491105	0.317868	1.186511	-0.554527	0.293414	0.794179	-0.629633	0.313537	0.784269	-0.633455	0.273291	0.804088	-0.625812	0.152423	1.301375	-0.560490	0.396276	0.943714	-0.471310	0.432734	0.931992	-0.517433	0.147062	1.105371	-0.421418	0.160727	1.190451	-0.592866	0.276919	1.227280	-0.569789	0.260995	1.117207	-0.419565	0.212327	1.252451	-0.491393	0.328510	1.222597	-0.568068	0.147475	1.191972	-0.596416	0.136607	0.999287	-0.584804	0.273527	1.185342	-0.577325
3924	32.700000	0.406218	0.938912	-0.491707	0.318172	1.186476	-0.555217	0.293523	0.793858	-0.629847	0.313642	0.783931	-0.633645	0.273405	0.803786	-0.626048	0.152689	1.301349	-0.561517	0.396384	0.943695	-0.471767	0.432751	0.931856	-0.517932	0.147057	1.105586	-0.422118	0.160973	1.190366	-0.593694	0.277164	1.227201	-0.570500	0.261028	1.117140	-0.420290	0.212430	1.252357	-0.492216	0.328754	1.222537	-0.568691	0.147727	1.191888	-0.597263	0.136742	0.999228	-0.585334	0.273800	1.185261	-0.578037
3925	32.708333	0.406418	0.938927	-0.492324	0.318478	1.186430	-0.555897	0.293617	0.793531	-0.630017	0.313729	0.783581	-0.633790	0.273504	0.803481	-0.626243	0.152969	1.301325	-0.562540	0.396460	0.943665	-0.472188	0.432763	0.931713	-0.518374	0.147062	1.105798	-0.422821	0.161233	1.190284	-0.594521	0.277417	1.227134	-0.571200	0.261010	1.117104	-0.420997	0.212551	1.252312	-0.493033	0.329003	1.222466	-0.569300	0.147992	1.191806	-0.598108	0.136890	0.999173	-0.585872	0.274062	1.185193	-0.578734
3926	32.716667	0.406612	0.938948	-0.492929	0.318783	1.186375	-0.556566	0.293693	0.793197	-0.630149	0.313798	0.783225	-0.633898	0.273587	0.803170	-0.626400	0.153261	1.301306	-0.563570	0.396511	0.943624	-0.472577	0.432776	0.931567	-0.518766	0.147087	1.106021	-0.423524	0.161505	1.190206	-0.595352	0.277673	1.227076	-0.571876	0.260973	1.117126	-0.421647	0.212700	1.252327	-0.493822	0.329254	1.222380	-0.569895	0.148269	1.191730	-0.598957	0.137051	0.999124	-0.586405	0.274307	1.185133	-0.579396
3927	32.725000	0.406775	0.938952	-0.493488	0.319089	1.186313	-0.557226	0.293753	0.792854	-0.630253	0.313854	0.782866	-0.633983	0.273651	0.802843	-0.626524	0.153559	1.301299	-0.564614	0.396542	0.943579	-0.472935	0.432790	0.931422	-0.519111	0.147140	1.106267	-0.424226	0.161784	1.190139	-0.596188	0.277933	1.227021	-0.572527	0.260951	1.117207	-0.422229	0.212885	1.252391	-0.494574	0.329507	1.222282	-0.570478	0.148552	1.191662	-0.599811	0.137229	0.999084	-0.586927	0.274540	1.185074	-0.580017
3928	32.733333	0.406894	0.938934	-0.493990	0.319400	1.186249	-0.557886	0.293801	0.792497	-0.630333	0.313901	0.782504	-0.634055	0.273700	0.802489	-0.626610	0.153856	1.301308	-0.565674	0.396550	0.943533	-0.473266	0.432803	0.931279	-0.519412	0.147223	1.106544	-0.424925	0.162067	1.190085	-0.597031	0.278203	1.226962	-0.573161	0.260973	1.117320	-0.422766	0.213103	1.252473	-0.495298	0.329771	1.222177	-0.571057	0.148840	1.191607	-0.600669	0.137427	0.999058	-0.587433	0.274778	1.185011	-0.580611
3929	32.741667	0.406972	0.938903	-0.494444	0.319724	1.186189	-0.558552	0.293839	0.792123	-0.630385	0.313944	0.782142	-0.634116	0.273734	0.802103	-0.626654	0.154148	1.301333	-0.566751	0.396535	0.943489	-0.473582	0.432815	0.931141	-0.519683	0.147328	1.106850	-0.425623	0.162352	1.190045	-0.597880	0.278491	1.226893	-0.573791	0.261063	1.117429	-0.423290	0.213346	1.252535	-0.496009	0.330054	1.222074	-0.571640	0.149129	1.191564	-0.601533	0.137644	0.999045	-0.587926	0.275043	1.184936	-0.581198
3930	32.750000	0.407009	0.938864	-0.494859	0.320063	1.186137	-0.559227	0.293867	0.791733	-0.630413	0.313982	0.781781	-0.634168	0.273753	0.801685	-0.626658	0.154439	1.301367	-0.567835	0.396499	0.943445	-0.473897	0.432823	0.931007	-0.519938	0.147434	1.107173	-0.426319	0.162639	1.190015	-0.598731	0.278802	1.226810	-0.574424	0.261234	1.117518	-0.423814	0.213606	1.252557	-0.496718	0.330361	1.221980	-0.572230	0.149419	1.191530	-0.602399	0.137867	0.999042	-0.588412	0.275347	1.184846	-0.581787
3931	32.758333	0.406988	0.938812	-0.495220	0.320423	1.186097	-0.559918	0.293882	0.791334	-0.630426	0.314009	0.781421	-0.634214	0.273754	0.801248	-0.626639	0.154740	1.301401	-0.568918	0.396442	0.943403	-0.474222	0.432825	0.930877	-0.520193	0.147518	1.107497	-0.427016	0.162931	1.189983	-0.599580	0.279131	1.226717	-0.575058	0.261485	1.117595	-0.424334	0.213879	1.252540	-0.497425	0.330690	1.221900	-0.572824	0.149715	1.191496	-0.603265	0.138078	0.999041	-0.588900	0.275690	1.184744	-0.582375
3932	32.766667	0.406893	0.938738	-0.495514	0.320811	1.186073	-0.560635	0.293879	0.790931	-0.630437	0.314022	0.781061	-0.634255	0.273735	0.800801	-0.626619	0.155059	1.301426	-0.569992	0.396364	0.943366	-0.474564	0.432812	0.930747	-0.520457	0.147576	1.107808	-0.427713	0.163230	1.189943	-0.600423	0.279469	1.226618	-0.575689	0.261810	1.117678	-0.424835	0.214160	1.252500	-0.498123	0.331030	1.221835	-0.573421	0.150019	1.191455	-0.604126	0.138268	0.999035	-0.589391	0.276058	1.184634	-0.582954
3933	32.775000	0.406727	0.938641	-0.495747	0.321240	1.186068	-0.561390	0.293859	0.790524	-0.630452	0.314019	0.780697	-0.634293	0.273699	0.800351	-0.626611	0.155398	1.301438	-0.571057	0.396264	0.943339	-0.474921	0.432774	0.930614	-0.520735	0.147618	1.108104	-0.428407	0.163535	1.189890	-0.601258	0.279808	1.226519	-0.576308	0.262198	1.117787	-0.425298	0.214450	1.252457	-0.498803	0.331372	1.221786	-0.574017	0.150330	1.191403	-0.604981	0.138438	0.999020	-0.589883	0.276437	1.184521	-0.583512
3934	32.783333	0.406516	0.938534	-0.495953	0.321720	1.186086	-0.562201	0.293828	0.790109	-0.630469	0.314005	0.780323	-0.634326	0.273651	0.799894	-0.626612	0.155750	1.301437	-0.572107	0.396137	0.943328	-0.475288	0.432698	0.930472	-0.521026	0.147650	1.108383	-0.429097	0.163845	1.189826	-0.602084	0.280141	1.226423	-0.576913	0.262636	1.117938	-0.425713	0.214744	1.252424	-0.499461	0.331710	1.221753	-0.574607	0.150645	1.191341	-0.605826	0.138596	0.998996	-0.590375	0.276818	1.184408	-0.584043
